<?xml version="1.0" standalone="no"?><!DOCTYPE svg PUBLIC "-//W3C//DTD SVG 1.1//EN" "http://www.w3.org/Graphics/SVG/1.1/DTD/svg11.dtd"><svg t="1672305212237" class="icon" viewBox="0 0 1024 1024" version="1.1" xmlns="http://www.w3.org/2000/svg" p-id="19833" width="256" height="256" xmlns:xlink="http://www.w3.org/1999/xlink"><path d="M511.972 727.915c-15.69 0-31.396-0.536-47.139-1.618-80.778-5.555-159.058-25.077-232.664-58.025-76.187-34.104-145.031-81.609-204.621-141.199-8.275-8.275-8.275-21.692 0-29.967 8.275-8.275 21.692-8.275 29.967 0 224.047 224.048 584.216 250.556 837.784 61.661 25.04-18.652 49.024-39.398 71.286-61.661 8.275-8.275 21.691-8.275 29.967 0 8.275 8.275 8.275 21.692 0 29.966-23.707 23.709-49.256 45.807-75.936 65.681-118.068 87.955-261.632 135.162-408.644 135.162z" p-id="19834" fill="#caced5"></path><path d="M981.469 533.653a21.12 21.12 0 0 1-14.983-6.206c-22.262-22.262-46.245-43.007-71.285-61.66-253.566-188.896-613.737-162.386-837.785 61.66-8.275 8.275-21.691 8.275-29.967 0s-8.275-21.692 0-29.967c59.59-59.59 128.435-107.096 204.621-141.199 73.606-32.948 151.886-52.471 232.664-58.025C627.98 287.027 789.848 334.458 920.52 431.8c26.679 19.875 52.227 41.972 75.934 65.68 8.275 8.275 8.275 21.691 0 29.967a21.129 21.129 0 0 1-14.985 6.206z" p-id="19835" fill="#caced5"></path><path d="M513.05 647.773c-74.817 0-135.685-60.868-135.685-135.685s60.868-135.685 135.685-135.685c74.816 0 135.685 60.868 135.685 135.685S587.866 647.773 513.05 647.773z m0-231.369c-52.761 0-95.685 42.924-95.685 95.685s42.924 95.685 95.685 95.685 95.685-42.924 95.685-95.685c-0.001-52.761-42.924-95.685-95.685-95.685z" p-id="19836" fill="#caced5"></path><path d="M896.124 192.032L127.975 831.968" fill="#caced5" p-id="19837"></path><path d="M127.989 856.97c-7.165 0-14.277-3.063-19.222-8.999-8.837-10.608-7.402-26.372 3.206-35.21l768.149-639.937c10.608-8.837 26.371-7.401 35.21 3.206 8.838 10.608 7.402 26.372-3.206 35.21L143.977 851.177a24.907 24.907 0 0 1-15.988 5.793z" p-id="19838" fill="#caced5"></path></svg>